<svg xmlns="http://www.w3.org/2000/svg" class="pf" width="800" height="260" viewBox="0 0 800 260" role="img" aria-labelledby="pf-title pf-desc">
<title id="pf-title">LobsterEnigma's ProfileForge city</title>
<desc id="pf-desc">A pixel city built from 161 contributions, one building per week, in autumn under a waning gibbous. Best week: 42. Current streak: 5 days.</desc>
<style>.pf{--pf-bg:#ffffff;--pf-border:#d0d7de;--pf-title:#1f2328;--pf-text:#1f2328;--pf-muted:#656d76;--pf-accent:#cf4a1f;--pf-bar-empty:#eaeef2;--pf-hp:#2da44e;--pf-exp:#0969da;--pf-sky-top:#bfe3ff;--pf-sky-bottom:#fdf3dc;--pf-ground:#f0d09a;--pf-ground-dark:#d6ae72;--pf-stars:0;--pf-city-sky-top:#4b5aa8;--pf-city-sky-bottom:#ffb38a;--pf-city-text:#ffffff;--pf-city-muted:#e8e6ff;--pf-bldg1:#2f3354;--pf-bldg2:#3b4066;--pf-bldg3:#262a45;--pf-window-on:#ffd166;--pf-window-alt:#ffe8a3;--pf-window-off:#4a5078;--pf-road:#23263b;--pf-celestial:#ff8a5c}@media (prefers-color-scheme:dark){.pf{--pf-bg:#0d1117;--pf-border:#30363d;--pf-title:#e6edf3;--pf-text:#e6edf3;--pf-muted:#8d96a0;--pf-accent:#ff8a5c;--pf-bar-empty:#21262d;--pf-hp:#3fb950;--pf-exp:#58a6ff;--pf-sky-top:#0a1630;--pf-sky-bottom:#23305a;--pf-ground:#3d3526;--pf-ground-dark:#2b251b;--pf-stars:1;--pf-city-sky-top:#070f24;--pf-city-sky-bottom:#1f2c55;--pf-city-text:#e6edf3;--pf-city-muted:#9fb0d0;--pf-bldg1:#161d33;--pf-bldg2:#1d2640;--pf-bldg3:#121829;--pf-window-on:#ffd166;--pf-window-alt:#9ad1ff;--pf-window-off:#26304d;--pf-road:#0e1322;--pf-celestial:#f4f1de}}
.pf-twinkle{transform-box:fill-box;transform-origin:center;animation:pf-twinkle 2.2s ease-in-out infinite}
@keyframes pf-twinkle{0%,100%{opacity:.2}50%{opacity:1}}
.pf-night{opacity:var(--pf-stars)}
.pf-day{opacity:calc(1 - var(--pf-stars))}
.pf-beam{opacity:var(--pf-stars)}
.pf-glow{opacity:var(--pf-stars)}
.pf-flicker{animation:pf-flicker 7s linear infinite}
@keyframes pf-flicker{0%,84%,100%{opacity:1}85%,93%{opacity:0}}
.pf-beacon{animation:pf-beacon 1.6s steps(1) infinite}
@keyframes pf-beacon{0%{opacity:1}50%{opacity:.15}100%{opacity:.15}}
.pf-strobe{animation:pf-strobe 1.1s steps(1) infinite}
@keyframes pf-strobe{0%{opacity:1}12%{opacity:0}100%{opacity:0}}
.pf-neon{animation:pf-buzz 6s linear infinite}
@keyframes pf-buzz{0%,90%,94%,97%,100%{opacity:1}91%,95%{opacity:.35}}
.pf-sign{font:700 8px ui-monospace,SFMono-Regular,Menlo,Consolas,monospace;letter-spacing:.06em}
.pf-drive-r{animation:pf-drive-r 14s linear infinite}
.pf-drive-l{animation:pf-drive-l 18s linear infinite}
@keyframes pf-drive-r{0%{transform:translateX(-60px)}100%{transform:translateX(860px)}}
@keyframes pf-drive-l{0%{transform:translateX(860px)}100%{transform:translateX(-60px)}}
.pf-fly{animation:pf-fly 38s linear infinite}
@keyframes pf-fly{0%{transform:translateX(840px)}100%{transform:translateX(-80px)}}
.pf-flock{animation:pf-flock 46s linear infinite}
@keyframes pf-flock{0%{transform:translateX(-60px)}100%{transform:translateX(860px)}}
.pf-flap-a{animation:pf-flap-a .6s steps(1) infinite}
.pf-flap-b{opacity:0;animation:pf-flap-b .6s steps(1) infinite}
@keyframes pf-flap-a{0%{opacity:1}50%{opacity:0}100%{opacity:0}}
@keyframes pf-flap-b{0%{opacity:0}50%{opacity:1}100%{opacity:1}}
.pf-shoot{animation:pf-shoot 9s ease-out infinite}
@keyframes pf-shoot{0%{transform:translate(0,0);opacity:0}2%{opacity:1}12%{transform:translate(-170px,74px);opacity:0}100%{transform:translate(-170px,74px);opacity:0}}

.pf-fall{animation:pf-fall 10s linear infinite}
.pf-spin{transform-box:fill-box;transform-origin:center}
@keyframes pf-fall{0%{transform:translate(0,-12px) rotate(0)}100%{transform:translate(var(--dx),272px) rotate(var(--spin,0deg))}}
.pf-firefly{animation:pf-firefly 3s ease-in-out infinite}
@keyframes pf-firefly{0%,100%{opacity:0;transform:translate(0,0)}50%{opacity:1;transform:translate(var(--dx),-6px)}}


.pf-drift{animation:pf-drift 160s linear infinite}
@keyframes pf-drift{0%{transform:translateX(-160px)}100%{transform:translateX(860px)}}
.pf-rain{animation:pf-rain .8s linear infinite}
@keyframes pf-rain{0%{transform:translate(0,-12px)}100%{transform:translate(-26px,272px)}}
.pf-fog{animation:pf-fog 24s ease-in-out infinite alternate}
@keyframes pf-fog{0%{transform:translateX(-50px)}100%{transform:translateX(50px)}}


.pf-xmas-a{animation:pf-xmas 1.4s steps(1) infinite}
.pf-xmas-b{animation:pf-xmas 1.4s steps(1) infinite;animation-delay:-.7s}
@keyframes pf-xmas{0%{opacity:1}50%{opacity:.25}100%{opacity:.25}}
.pf-swing{transform-box:fill-box;transform-origin:50% 0;animation:pf-swing 2.6s ease-in-out infinite alternate}
@keyframes pf-swing{0%{transform:rotate(-8deg)}100%{transform:rotate(8deg)}}
.pf-bats{animation:pf-bats 30s linear infinite}
@keyframes pf-bats{0%{transform:translateX(840px)}100%{transform:translateX(-80px)}}
.pf-launch{animation:pf-launch 4.2s ease-out infinite}
@keyframes pf-launch{0%{transform:translateY(90px);opacity:0}5%{opacity:1}30%{transform:translateY(0);opacity:1}33%,100%{transform:translateY(0);opacity:0}}
.pf-spark{animation:pf-spark 4.2s ease-out infinite}
@keyframes pf-spark{0%,30%{transform:translate(0,0);opacity:0}32%{opacity:1}70%{opacity:.9}100%{transform:translate(var(--dx),var(--dy));opacity:0}}


.pf-stroll{animation:pf-stroll 80s linear infinite}
@keyframes pf-stroll{0%,100%{transform:translateX(40px)}46%,50%{transform:translateX(720px)}96%{transform:translateX(40px)}}
.pf-face{transform-box:fill-box;transform-origin:center;animation:pf-face 80s steps(1) infinite}
@keyframes pf-face{0%{transform:scaleX(1)}48%{transform:scaleX(-1)}98%{transform:scaleX(1)}}
.pf-hop{animation:pf-hop .5s ease-in-out infinite}
@keyframes pf-hop{0%,100%{transform:translateY(0)}50%{transform:translateY(-4px)}}
.pf-zz{animation:pf-zz 2.6s ease-out infinite}
@keyframes pf-zz{0%{transform:translate(0,0);opacity:0}20%{opacity:1}100%{transform:translate(6px,-18px);opacity:0}}


.pf-fa{animation:pf-a 1s steps(1) infinite}
.pf-fb{opacity:0;animation:pf-b 1s steps(1) infinite}
@keyframes pf-a{0%{opacity:1}50%{opacity:0}100%{opacity:0}}
@keyframes pf-b{0%{opacity:0}50%{opacity:1}100%{opacity:1}}

.pf-eo{animation:pf-eo 7s steps(1) infinite}
.pf-eg{opacity:0;animation:pf-eg 7s steps(1) infinite}
.pf-es{opacity:0;animation:pf-es 7s steps(1) infinite}
@keyframes pf-eo{0%{opacity:1}38%{opacity:0}52%{opacity:1}90%{opacity:0}95%{opacity:1}100%{opacity:1}}
@keyframes pf-eg{0%{opacity:0}38%{opacity:1}52%{opacity:0}100%{opacity:0}}
@keyframes pf-es{0%{opacity:0}90%{opacity:1}95%{opacity:0}100%{opacity:0}}
.pf-emote{opacity:0;transform-box:fill-box;transform-origin:0 100%;animation:pf-emote 9s ease-out infinite}
@keyframes pf-emote{0%,40%{opacity:0;transform:scale(.3)}43%,51%{opacity:1;transform:scale(1)}54%,100%{opacity:0;transform:scale(1)}}
.pf-emote-fast{opacity:0;transform-box:fill-box;transform-origin:0 100%;animation:pf-emote-fast 3.6s ease-out infinite}
@keyframes pf-emote-fast{0%{opacity:0;transform:scale(.3)}8%,40%{opacity:1;transform:scale(1)}50%,100%{opacity:0}}
.pf-stars{transform-box:fill-box;transform-origin:center;animation:pf-orbit-stars 1.2s linear infinite}
@keyframes pf-orbit-stars{from{transform:rotate(0)}to{transform:rotate(360deg)}}

.pf-bob{animation:pf-bob 2s ease-in-out infinite}
@keyframes pf-bob{0%,100%{transform:translateY(0)}50%{transform:translateY(-3px)}}

.pf-title{font:700 18px 'Segoe UI',Ubuntu,'Helvetica Neue',sans-serif;fill:var(--pf-city-text)}
.pf-sub{font:400 12px 'Segoe UI',Ubuntu,'Helvetica Neue',sans-serif;fill:var(--pf-city-muted)}
.pf-stats{font:700 11px ui-monospace,SFMono-Regular,Menlo,Consolas,monospace;fill:var(--pf-city-muted);letter-spacing:.04em}
.pf-halo{paint-order:stroke;stroke:var(--pf-city-sky-top);stroke-width:3px;stroke-linejoin:round}
@media (prefers-reduced-motion:reduce){.pf *{animation:none!important}}
</style>
<defs>
  <clipPath id="pf-clip"><rect width="800" height="260" rx="10"/></clipPath>
  <linearGradient id="pf-sky" x1="0" y1="0" x2="0" y2="1">
    <stop offset="0" style="stop-color:var(--pf-city-sky-top)"/>
    <stop offset="1" style="stop-color:var(--pf-city-sky-bottom)"/>
  </linearGradient>
  <radialGradient id="pf-lamp" cy=".2"><stop offset="0" style="stop-color:var(--pf-window-on);stop-opacity:.5"/><stop offset="1" style="stop-color:var(--pf-window-on);stop-opacity:0"/></radialGradient>
  <linearGradient id="pf-beam-r"><stop offset="0" stop-color="#fff3a0" stop-opacity=".55"/><stop offset="1" stop-color="#fff3a0" stop-opacity="0"/></linearGradient>
  <linearGradient id="pf-beam-l" x1="1" x2="0"><stop offset="0" stop-color="#fff3a0" stop-opacity=".55"/><stop offset="1" stop-color="#fff3a0" stop-opacity="0"/></linearGradient>
  <linearGradient id="pf-tail" gradientUnits="userSpaceOnUse" x1="560" y1="34" x2="592" y2="20">
    <stop offset="0" stop-color="#fff"/><stop offset="1" stop-color="#fff" stop-opacity="0"/>
  </linearGradient>
  <linearGradient id="pf-fog" x1="0" y1="0" x2="0" y2="1">
    <stop offset="0" stop-color="#d7deea" stop-opacity="0"/><stop offset=".5" stop-color="#d7deea"/><stop offset="1" stop-color="#d7deea" stop-opacity="0"/>
  </linearGradient>
  <filter id="pf-glow" x="-30%" y="-60%" width="160%" height="220%">
    <feGaussianBlur stdDeviation="1.6" result="blur"/>
    <feMerge><feMergeNode in="blur"/><feMergeNode in="SourceGraphic"/></feMerge>
  </filter>
</defs>

<g clip-path="url(#pf-clip)"><g>

<rect width="800" height="260" fill="url(#pf-sky)"/>
<g class="pf-day"><g opacity=".25"><path style="fill:var(--pf-celestial)" d="M624 108h32v4h-32zM612 112h56v4h-56zM608 116h64v4h-64zM600 120h80v4h-80zM596 124h88v4h-88zM592 128h96v4h-96zM592 132h96v4h-96zM588 136h104v4h-104zM584 140h112v4h-112zM584 144h112v4h-112zM584 148h112v4h-112zM580 152h120v4h-120zM580 156h120v4h-120zM580 160h120v4h-120zM580 164h120v4h-120zM580 168h120v4h-120zM580 172h120v4h-120zM580 176h120v4h-120zM580 180h120v4h-120zM584 184h112v4h-112zM584 188h112v4h-112zM584 192h112v4h-112zM588 196h104v4h-104zM592 200h96v4h-96zM592 204h96v4h-96zM596 208h88v4h-88zM600 212h80v4h-80zM608 216h64v4h-64zM612 220h56v4h-56zM624 224h32v4h-32z"/></g><path style="fill:var(--pf-celestial)" d="M628 128h24v4h-24zM620 132h40v4h-40zM612 136h56v4h-56zM608 140h64v4h-64zM608 144h64v4h-64zM604 148h72v4h-72zM604 152h72v4h-72zM600 156h80v4h-80zM600 160h80v4h-80zM600 164h80v4h-80zM600 168h80v4h-80zM600 172h80v4h-80zM600 176h80v4h-80zM604 180h72v4h-72zM604 184h72v4h-72zM608 188h64v4h-64zM608 192h64v4h-64zM612 196h56v4h-56zM620 200h40v4h-40zM628 204h24v4h-24z"/></g>
<g class="pf-night"><path fill="#fff" d="M374 49h2v2h-2zM429 154h2v2h-2zM618 86h2v2h-2zM392 146h2v2h-2zM219 126h2v2h-2zM267 113h2v2h-2zM120 117h2v2h-2zM732 9h2v2h-2zM772 9h2v2h-2zM432 31h2v2h-2zM532 84h2v2h-2zM664 85h2v2h-2zM741 153h2v2h-2zM704 36h2v2h-2zM783 149h2v2h-2zM665 79h2v2h-2zM782 80h2v2h-2zM202 33h2v2h-2zM723 135h2v2h-2zM661 29h2v2h-2zM17 8h2v2h-2zM579 36h2v2h-2zM497 142h2v2h-2zM13 129h2v2h-2zM526 137h2v2h-2zM662 118h2v2h-2zM127 19h2v2h-2zM225 31h2v2h-2zM390 50h2v2h-2zM768 129h2v2h-2zM454 35h2v2h-2zM40 47h2v2h-2zM142 36h2v2h-2zM752 118h2v2h-2zM316 42h2v2h-2zM198 96h2v2h-2zM410 132h2v2h-2zM524 126h2v2h-2zM603 93h2v2h-2z"/><rect class="pf-twinkle" style="animation-delay:-1.26s" x="337" y="112" width="2" height="2" fill="#fff"/><rect class="pf-twinkle" style="animation-delay:-2.96s" x="20" y="49" width="2" height="2" fill="#fff"/><rect class="pf-twinkle" style="animation-delay:-1.89s" x="180" y="94" width="2" height="2" fill="#fff"/><rect class="pf-twinkle" style="animation-delay:-0.94s" x="623" y="45" width="2" height="2" fill="#fff"/><rect class="pf-twinkle" style="animation-delay:-0.09s" x="754" y="16" width="2" height="2" fill="#fff"/><rect class="pf-twinkle" style="animation-delay:-0.63s" x="497" y="131" width="2" height="2" fill="#fff"/><rect class="pf-twinkle" style="animation-delay:-2.35s" x="365" y="125" width="2" height="2" fill="#fff"/><g opacity=".13"><path style="fill:var(--pf-celestial)" d="M716 64h2v2h-2zM724 72h2v2h-2zM724 74h2v2h-2zM724 76h2v2h-2zM724 78h2v2h-2zM724 80h2v2h-2zM724 82h2v2h-2zM716 90h2v2h-2z"/></g><path style="fill:var(--pf-celestial)" d="M706 64h10v2h-10zM704 66h16v2h-16zM702 68h20v2h-20zM700 70h24v2h-24zM698 72h26v2h-26zM698 74h26v2h-26zM698 76h26v2h-26zM698 78h26v2h-26zM698 80h26v2h-26zM698 82h26v2h-26zM700 84h24v2h-24zM702 86h20v2h-20zM704 88h16v2h-16zM706 90h10v2h-10z"/></g>
<g class="pf-day"><g class="pf-drift" style="animation-delay:-139s"><g transform="translate(0 130)" opacity=".7"><path fill="#ffffff" d="M0 8h44v8h-44zM8 2h20v8h-20zM20 0h16v10h-16zM32 4h10v6h-10z"/></g></g><g class="pf-drift" style="animation-delay:-110s"><g transform="translate(0 119)" opacity=".7"><path fill="#ffffff" d="M0 8h44v8h-44zM8 2h20v8h-20zM20 0h16v10h-16zM32 4h10v6h-10z"/></g></g><g class="pf-drift" style="animation-delay:-124s"><g transform="translate(0 72)" opacity=".7"><path fill="#ffffff" d="M0 8h44v8h-44zM8 2h20v8h-20zM20 0h16v10h-16zM32 4h10v6h-10z"/></g></g><g class="pf-drift" style="animation-delay:-85s"><g transform="translate(0 110)" opacity=".7"><path fill="#ffffff" d="M0 8h44v8h-44zM8 2h20v8h-20zM20 0h16v10h-16zM32 4h10v6h-10z"/></g></g></g>
<g class="pf-fly" style="animation-delay:-14s"><g transform="translate(0 104)"><path style="fill:var(--pf-bldg1)" d="M0 2h18v3h-18zM14 -1h3v3h-3zM6 5h6v2h-6z"/>
<rect class="pf-beacon" x="8" y="7" width="2" height="2" fill="#ff4d4d"/>
<rect class="pf-beacon" style="animation-delay:-.8s" x="-1" y="3" width="2" height="2" fill="#7dff9b"/>
<rect class="pf-strobe" x="16" y="-2" width="2" height="2" fill="#ffffff"/></g></g><g class="pf-day"><g class="pf-flock" style="animation-delay:-20s"><g transform="translate(0 122)" fill="none" stroke="var(--pf-bldg3)" stroke-width="1.3"><g transform="translate(0 0)"><path class="pf-flap-a" d="M0 0L3 3L6 0"/><path class="pf-flap-b" d="M0 3L3 2L6 3"/></g><g transform="translate(10 5)"><path class="pf-flap-a" d="M0 0L3 3L6 0"/><path class="pf-flap-b" d="M0 3L3 2L6 3"/></g><g transform="translate(-9 6)"><path class="pf-flap-a" d="M0 0L3 3L6 0"/><path class="pf-flap-b" d="M0 3L3 2L6 3"/></g><g transform="translate(20 10)"><path class="pf-flap-a" d="M0 0L3 3L6 0"/><path class="pf-flap-b" d="M0 3L3 2L6 3"/></g></g></g></g>


<g opacity=".45"><path style="fill:var(--pf-bldg2)" d="M0 113h16v113h-16zM16 167h19v59h-19zM35 161h13v65h-13zM52 154h18v72h-18zM70 181h27v45h-27zM97 178h14v48h-14zM111 180h33v46h-33zM148 161h27v65h-27zM175 173h31v53h-31zM206 157h34v69h-34zM244 129h15v97h-15zM259 184h28v42h-28zM287 154h24v72h-24zM311 183h32v43h-32zM343 132h21v94h-21zM364 159h17v67h-17zM385 189h14v37h-14zM399 171h21v55h-21zM424 182h26v44h-26zM450 127h23v99h-23zM473 162h33v64h-33zM506 145h32v81h-32zM538 177h33v49h-33zM571 185h17v41h-17zM588 114h14v112h-14zM602 167h30v59h-30zM632 158h31v68h-31zM663 150h16v76h-16zM683 146h20v80h-20zM703 137h22v89h-22zM725 162h19v64h-19zM744 169h17v57h-17zM761 171h16v55h-16zM777 158h14v68h-14zM791 164h24v62h-24z"/></g>
<path style="fill:var(--pf-bldg2)" d="M72 134h14v92h-14zM114 134h14v92h-14zM124 126h2v8h-2zM142 182h14v44h-14zM152 174h2v8h-2zM170 178h14v48h-14zM173 146h8v32h-8zM199 214h12v12h-12zM269 218h12v8h-12zM381 218h12v8h-12zM451 214h12v12h-12zM493 218h12v8h-12zM689 218h12v8h-12zM731 214h12v12h-12z"/><path style="fill:var(--pf-bldg1)" d="M86 182h14v44h-14zM90 175h6v4h-6zM91 179h1v3h-1zM94 179h1v3h-1zM157 214h12v12h-12zM184 170h14v56h-14zM619 214h12v12h-12zM675 218h12v8h-12zM716 188h14v38h-14zM720 181h6v4h-6zM721 185h1v3h-1zM724 185h1v3h-1zM758 194h14v32h-14z"/><path style="fill:var(--pf-bldg3)" d="M128 188h14v38h-14zM138 182h2v6h-2zM605 214h12v12h-12zM703 214h12v12h-12zM744 98h14v128h-14z"/><path fill="#7a3b2e" d="M156 212h14v2h-14zM158 210h10v2h-10zM160 208h6v2h-6zM162 206h2v2h-2zM159 221h3v5h-3zM380 216h14v2h-14zM382 214h10v2h-10zM384 212h6v2h-6zM386 210h2v2h-2zM383 221h3v5h-3zM492 216h14v2h-14zM494 214h10v2h-10zM496 212h6v2h-6zM498 210h2v2h-2zM495 221h3v5h-3zM604 212h14v2h-14zM606 210h10v2h-10zM608 208h6v2h-6zM610 206h2v2h-2zM614 207h2v4h-2zM607 221h3v5h-3zM730 212h14v2h-14zM732 210h10v2h-10zM734 208h6v2h-6zM736 206h2v2h-2zM733 221h3v5h-3z"/><path fill="#35536b" d="M198 212h14v2h-14zM200 210h10v2h-10zM202 208h6v2h-6zM204 206h2v2h-2zM208 207h2v4h-2zM201 221h3v5h-3zM450 212h14v2h-14zM452 210h10v2h-10zM454 208h6v2h-6zM456 206h2v2h-2zM453 221h3v5h-3zM674 216h14v2h-14zM676 214h10v2h-10zM678 212h6v2h-6zM680 210h2v2h-2zM684 211h2v4h-2zM677 221h3v5h-3zM688 216h14v2h-14zM690 214h10v2h-10zM692 212h6v2h-6zM694 210h2v2h-2zM698 211h2v4h-2zM691 221h3v5h-3z"/><path fill="#4f3f63" d="M268 216h14v2h-14zM270 214h10v2h-10zM272 212h6v2h-6zM274 210h2v2h-2zM278 211h2v4h-2zM271 221h3v5h-3zM618 212h14v2h-14zM620 210h10v2h-10zM622 208h6v2h-6zM624 206h2v2h-2zM621 221h3v5h-3zM702 212h14v2h-14zM704 210h10v2h-10zM706 208h6v2h-6zM708 206h2v2h-2zM712 207h2v4h-2zM705 221h3v5h-3z"/><path style="fill:var(--pf-window-off)" d="M74 220h4v6h-4zM80 220h4v6h-4zM74 214h4v6h-4zM80 214h4v6h-4zM74 208h4v6h-4zM80 208h4v6h-4zM74 202h4v6h-4zM80 202h4v6h-4zM74 196h4v6h-4zM80 196h4v6h-4zM74 190h4v6h-4zM80 190h4v6h-4zM74 184h4v6h-4zM80 184h4v6h-4zM74 178h4v6h-4zM74 172h4v6h-4zM80 172h4v6h-4zM74 166h4v6h-4zM80 166h4v6h-4zM74 160h4v6h-4zM80 154h4v6h-4zM74 148h4v6h-4zM80 148h4v6h-4zM74 142h4v6h-4zM80 136h4v6h-4zM88 222h4v4h-4zM94 222h4v4h-4zM88 216h4v4h-4zM94 216h4v4h-4zM88 210h4v4h-4zM94 210h4v4h-4zM88 204h4v4h-4zM94 204h4v4h-4zM88 198h4v4h-4zM94 198h4v4h-4zM88 192h4v4h-4zM94 192h4v4h-4zM94 186h4v4h-4zM116 222h4v4h-4zM122 216h4v4h-4zM116 210h4v4h-4zM122 210h4v4h-4zM116 204h4v4h-4zM122 204h4v4h-4zM116 198h4v4h-4zM122 198h4v4h-4zM116 192h4v4h-4zM122 192h4v4h-4zM116 180h4v4h-4zM122 180h4v4h-4zM116 174h4v4h-4zM122 174h4v4h-4zM116 168h4v4h-4zM122 168h4v4h-4zM116 156h4v4h-4zM122 156h4v4h-4zM116 144h4v4h-4zM138 222h2v4h-2zM134 216h2v4h-2zM138 216h2v4h-2zM130 210h2v4h-2zM138 210h2v4h-2zM130 204h2v4h-2zM134 204h2v4h-2zM138 204h2v4h-2zM130 198h2v4h-2zM134 198h2v4h-2zM138 198h2v4h-2zM130 192h2v4h-2zM134 192h2v4h-2zM138 192h2v4h-2zM144 222h4v4h-4zM144 216h4v4h-4zM150 216h4v4h-4zM144 210h4v4h-4zM150 210h4v4h-4zM144 204h4v4h-4zM150 204h4v4h-4zM144 198h4v4h-4zM144 192h4v4h-4zM150 192h4v4h-4zM144 186h4v4h-4zM150 186h4v4h-4zM159 215h3v3h-3zM164 215h3v3h-3zM172 222h4v4h-4zM178 222h4v4h-4zM172 216h4v4h-4zM172 210h4v4h-4zM178 210h4v4h-4zM172 204h4v4h-4zM172 198h4v4h-4zM172 192h4v4h-4zM178 192h4v4h-4zM172 186h4v4h-4zM178 186h4v4h-4zM172 180h4v4h-4zM178 180h4v4h-4zM175 174h4v4h-4zM175 168h4v4h-4zM175 162h4v4h-4zM175 150h4v4h-4zM192 222h4v4h-4zM186 216h4v4h-4zM192 216h4v4h-4zM192 204h4v4h-4zM186 198h4v4h-4zM192 198h4v4h-4zM186 192h4v4h-4zM192 192h4v4h-4zM186 180h4v4h-4zM186 174h4v4h-4zM192 174h4v4h-4zM206 220h3v3h-3zM206 215h3v3h-3zM276 220h3v3h-3zM388 220h3v3h-3zM458 220h3v3h-3zM453 215h3v3h-3zM458 215h3v3h-3zM500 220h3v3h-3zM612 220h3v3h-3zM607 215h3v3h-3zM612 215h3v3h-3zM626 215h3v3h-3zM682 220h3v3h-3zM696 220h3v3h-3zM710 220h3v3h-3zM705 215h3v3h-3zM710 215h3v3h-3zM724 222h4v4h-4zM718 216h4v4h-4zM724 210h4v4h-4zM718 204h4v4h-4zM724 204h4v4h-4zM718 198h4v4h-4zM724 198h4v4h-4zM718 192h4v4h-4zM724 192h4v4h-4zM738 220h3v3h-3zM733 215h3v3h-3zM738 215h3v3h-3zM746 216h4v4h-4zM746 210h4v4h-4zM752 210h4v4h-4zM746 204h4v4h-4zM752 204h4v4h-4zM746 186h4v4h-4zM752 186h4v4h-4zM746 180h4v4h-4zM752 180h4v4h-4zM746 174h4v4h-4zM746 168h4v4h-4zM752 168h4v4h-4zM746 156h4v4h-4zM752 156h4v4h-4zM752 144h4v4h-4zM746 132h4v4h-4zM746 126h4v4h-4zM752 126h4v4h-4zM746 120h4v4h-4zM752 120h4v4h-4zM746 114h4v4h-4zM746 108h4v4h-4zM746 102h4v4h-4zM752 102h4v4h-4zM760 222h4v4h-4zM760 216h4v4h-4zM766 216h4v4h-4zM766 210h4v4h-4zM760 204h4v4h-4zM766 204h4v4h-4zM760 198h4v4h-4zM766 198h4v4h-4z"/><path style="fill:var(--pf-window-on)" d="M80 178h4v6h-4zM74 154h4v6h-4zM74 136h4v6h-4zM88 186h4v4h-4zM122 222h4v4h-4zM116 186h4v4h-4zM122 186h4v4h-4zM116 162h4v4h-4zM122 162h4v4h-4zM122 150h4v4h-4zM122 144h4v4h-4zM116 138h4v4h-4zM122 138h4v4h-4zM130 222h2v4h-2zM134 222h2v4h-2zM130 216h2v4h-2zM134 210h2v4h-2zM150 222h4v4h-4zM164 220h3v3h-3zM178 216h4v4h-4zM178 198h4v4h-4zM175 156h4v4h-4zM186 222h4v4h-4zM192 210h4v4h-4zM186 204h4v4h-4zM186 186h4v4h-4zM192 180h4v4h-4zM201 215h3v3h-3zM626 220h3v3h-3zM621 215h3v3h-3zM718 222h4v4h-4zM724 216h4v4h-4zM718 210h4v4h-4zM746 222h4v4h-4zM752 222h4v4h-4zM752 216h4v4h-4zM746 198h4v4h-4zM752 198h4v4h-4zM746 192h4v4h-4zM752 192h4v4h-4zM752 174h4v4h-4zM746 162h4v4h-4zM752 162h4v4h-4zM746 144h4v4h-4zM746 138h4v4h-4zM752 138h4v4h-4zM752 114h4v4h-4zM752 108h4v4h-4zM766 222h4v4h-4zM760 210h4v4h-4z"/><path style="fill:var(--pf-window-alt)" d="M80 160h4v6h-4zM116 216h4v4h-4zM116 150h4v4h-4zM150 198h4v4h-4zM178 204h4v4h-4zM192 186h4v4h-4zM746 150h4v4h-4zM752 150h4v4h-4zM752 132h4v4h-4z"/><path fill="#8a9a4a" d="M30 224h14v2h-14zM44 224h14v2h-14zM58 224h14v2h-14zM100 224h14v2h-14zM212 224h14v2h-14zM226 224h14v2h-14zM240 224h14v2h-14zM254 224h14v2h-14zM282 224h14v2h-14zM296 224h14v2h-14zM310 224h14v2h-14zM324 224h14v2h-14zM338 224h14v2h-14zM352 224h14v2h-14zM366 224h14v2h-14zM394 224h14v2h-14zM408 224h14v2h-14zM422 224h14v2h-14zM436 224h14v2h-14zM464 224h14v2h-14zM478 224h14v2h-14zM506 224h14v2h-14zM520 224h14v2h-14zM534 224h14v2h-14zM548 224h14v2h-14zM562 224h14v2h-14zM576 224h14v2h-14zM590 224h14v2h-14zM632 224h14v2h-14zM646 224h14v2h-14zM660 224h14v2h-14z"/><path fill="#6b4b2a" d="M36 218h2v6h-2zM50 220h2v4h-2zM106 220h2v4h-2zM218 218h2v6h-2zM232 218h2v6h-2zM246 220h2v4h-2zM260 218h2v6h-2zM302 220h2v4h-2zM330 218h2v6h-2zM344 220h2v4h-2zM358 218h2v6h-2zM372 220h2v4h-2zM442 220h2v4h-2zM512 218h2v6h-2zM540 220h2v4h-2zM554 218h2v6h-2zM582 220h2v4h-2zM596 220h2v4h-2zM638 220h2v4h-2zM652 218h2v6h-2zM666 220h2v4h-2z"/><path fill="#e76f51" d="M33 210h8v8h-8zM34 208h6v2h-6zM355 210h8v8h-8zM356 208h6v2h-6zM551 210h8v8h-8zM552 208h6v2h-6z"/><path fill="#24603a" d="M47 214h8v6h-8zM48 209h6v5h-6zM50 205h2v4h-2zM103 214h8v6h-8zM104 209h6v5h-6zM106 205h2v4h-2zM243 214h8v6h-8zM244 209h6v5h-6zM246 205h2v4h-2zM299 214h8v6h-8zM300 209h6v5h-6zM302 205h2v4h-2zM341 214h8v6h-8zM342 209h6v5h-6zM344 205h2v4h-2zM369 214h8v6h-8zM370 209h6v5h-6zM372 205h2v4h-2zM439 214h8v6h-8zM440 209h6v5h-6zM442 205h2v4h-2zM537 214h8v6h-8zM538 209h6v5h-6zM540 205h2v4h-2zM579 214h8v6h-8zM580 209h6v5h-6zM582 205h2v4h-2zM593 214h8v6h-8zM594 209h6v5h-6zM596 205h2v4h-2zM635 214h8v6h-8zM636 209h6v5h-6zM638 205h2v4h-2zM663 214h8v6h-8zM664 209h6v5h-6zM666 205h2v4h-2z"/><path fill="#c9723a" d="M59 220h5v4h-5zM409 222h12v2h-12zM423 222h12v2h-12zM465 220h5v4h-5zM472 221h4v3h-4zM479 220h5v4h-5zM486 221h4v3h-4zM521 222h12v2h-12z"/><path fill="#b5543a" d="M66 221h4v3h-4zM283 220h5v4h-5zM290 221h4v3h-4zM311 220h5v4h-5zM318 221h4v3h-4zM395 222h12v2h-12zM563 222h12v2h-12z"/><path fill="#e9c46a" d="M215 210h8v8h-8zM216 208h6v2h-6zM257 210h8v8h-8zM258 208h6v2h-6zM327 210h8v8h-8zM328 208h6v2h-6zM509 210h8v8h-8zM510 208h6v2h-6z"/><path fill="#d62828" d="M229 210h8v8h-8zM230 208h6v2h-6zM649 210h8v8h-8zM650 208h6v2h-6z"/><path fill="#ff8fa3" d="M396 220h2v2h-2zM410 220h2v2h-2zM424 220h2v2h-2zM522 220h2v2h-2zM564 220h2v2h-2z"/><path fill="#ffd166" d="M400 220h2v2h-2zM414 220h2v2h-2zM428 220h2v2h-2zM526 220h2v2h-2zM568 220h2v2h-2z"/><path fill="#c3a6ff" d="M404 220h2v2h-2zM418 220h2v2h-2zM432 220h2v2h-2zM530 220h2v2h-2zM572 220h2v2h-2z"/><rect class="pf-flicker" style="animation-delay:-4.21s;fill:var(--pf-window-on)" x="80" y="142" width="4" height="6"/><rect class="pf-flicker" style="animation-delay:-6.65s;fill:var(--pf-window-on)" x="186" y="210" width="4" height="4"/><rect x="741" y="92" width="2" height="6" style="fill:var(--pf-bldg3)"/><rect x="759" y="92" width="2" height="6" style="fill:var(--pf-bldg3)"/><g class="pf-neon" filter="url(#pf-glow)"><rect x="738" y="81" width="26" height="11" rx="2" fill="#0b0b12" fill-opacity=".92" stroke="#5a75e2" stroke-width="1.2"/><text x="751" y="89" text-anchor="middle" class="pf-sign" fill="#5a75e2">PHP</text></g><rect x="750" y="67" width="2" height="14" style="fill:var(--pf-window-off)"/><rect class="pf-beacon" x="749" y="63" width="4" height="4" fill="#ff4d4d"/><path fill="#f5a623" d="M767 160h2v34h-2zM742 160h34v2h-34zM771 162h5v3h-5zM745 162h1v14h-1zM743 176h5v3h-5z"/><rect class="pf-beacon" x="766" y="156" width="4" height="4" fill="#ff4d4d"/>

<path style="fill:var(--pf-window-off)" d="M0 226h800v4h-800z"/><path style="fill:var(--pf-road)" d="M0 230h800v30h-800z"/><g opacity=".55"><path fill="#f2e3a8" d="M6 244h14v2h-14zM32 244h14v2h-14zM58 244h14v2h-14zM84 244h14v2h-14zM110 244h14v2h-14zM136 244h14v2h-14zM162 244h14v2h-14zM188 244h14v2h-14zM214 244h14v2h-14zM240 244h14v2h-14zM266 244h14v2h-14zM292 244h14v2h-14zM318 244h14v2h-14zM344 244h14v2h-14zM370 244h14v2h-14zM396 244h14v2h-14zM422 244h14v2h-14zM448 244h14v2h-14zM474 244h14v2h-14zM500 244h14v2h-14zM526 244h14v2h-14zM552 244h14v2h-14zM578 244h14v2h-14zM604 244h14v2h-14zM630 244h14v2h-14zM656 244h14v2h-14zM682 244h14v2h-14zM708 244h14v2h-14zM734 244h14v2h-14zM760 244h14v2h-14zM786 244h14v2h-14z"/></g><g opacity=".85"><rect x="529" y="230" width="2" height="1" fill="#f4a261"/><rect x="225" y="231" width="2" height="1" fill="#f4a261"/><rect x="604" y="227" width="2" height="1" fill="#e76f51"/><rect x="602" y="228" width="3" height="1" fill="#e9c46a"/><rect x="709" y="230" width="3" height="1" fill="#e76f51"/><rect x="193" y="228" width="3" height="1" fill="#e9c46a"/><rect x="298" y="226" width="3" height="1" fill="#d62828"/><rect x="210" y="226" width="2" height="1" fill="#f4a261"/><rect x="286" y="229" width="2" height="1" fill="#f4a261"/><rect x="156" y="229" width="3" height="1" fill="#e76f51"/><rect x="471" y="229" width="3" height="1" fill="#e9c46a"/><rect x="619" y="230" width="3" height="1" fill="#f4a261"/><rect x="744" y="228" width="2" height="1" fill="#e76f51"/><rect x="245" y="228" width="3" height="1" fill="#f4a261"/><rect x="646" y="229" width="3" height="1" fill="#e76f51"/><rect x="509" y="229" width="3" height="1" fill="#e9c46a"/><rect x="258" y="228" width="2" height="1" fill="#d62828"/><rect x="659" y="227" width="2" height="1" fill="#f4a261"/><rect x="368" y="228" width="2" height="1" fill="#d62828"/><rect x="442" y="230" width="3" height="1" fill="#d62828"/><rect x="789" y="228" width="3" height="1" fill="#e9c46a"/><rect x="45" y="228" width="3" height="1" fill="#e9c46a"/><rect x="154" y="227" width="3" height="1" fill="#e76f51"/><rect x="428" y="230" width="2" height="1" fill="#e76f51"/><rect x="295" y="226" width="2" height="1" fill="#f4a261"/><rect x="278" y="227" width="3" height="1" fill="#e9c46a"/><rect x="520" y="231" width="3" height="1" fill="#e9c46a"/><rect x="361" y="228" width="3" height="1" fill="#e76f51"/><rect x="722" y="227" width="3" height="1" fill="#f4a261"/><rect x="36" y="228" width="2" height="1" fill="#e9c46a"/><rect x="678" y="231" width="3" height="1" fill="#d62828"/><rect x="589" y="230" width="3" height="1" fill="#e9c46a"/><rect x="771" y="231" width="3" height="1" fill="#e9c46a"/><rect x="508" y="230" width="3" height="1" fill="#f4a261"/><rect x="505" y="226" width="2" height="1" fill="#f4a261"/><rect x="262" y="230" width="2" height="1" fill="#e9c46a"/><rect x="25" y="231" width="2" height="1" fill="#d62828"/><rect x="426" y="232" width="2" height="1" fill="#f4a261"/><rect x="491" y="227" width="2" height="1" fill="#e9c46a"/><rect x="520" y="228" width="3" height="1" fill="#e76f51"/><rect x="379" y="228" width="2" height="1" fill="#f4a261"/><rect x="666" y="229" width="2" height="1" fill="#f4a261"/><rect x="773" y="227" width="2" height="1" fill="#d62828"/><rect x="558" y="226" width="2" height="1" fill="#f4a261"/><rect x="740" y="231" width="2" height="1" fill="#e76f51"/><rect x="704" y="232" width="2" height="1" fill="#e9c46a"/></g><g class="pf-glow"><ellipse cx="65" cy="218" rx="12" ry="16" fill="url(#pf-lamp)"/><ellipse cx="201" cy="218" rx="12" ry="16" fill="url(#pf-lamp)"/><ellipse cx="337" cy="218" rx="12" ry="16" fill="url(#pf-lamp)"/><ellipse cx="473" cy="218" rx="12" ry="16" fill="url(#pf-lamp)"/><ellipse cx="609" cy="218" rx="12" ry="16" fill="url(#pf-lamp)"/><ellipse cx="745" cy="218" rx="12" ry="16" fill="url(#pf-lamp)"/></g><path style="fill:var(--pf-road)" d="M60 204h2v22h-2zM60 204h7v2h-7zM196 204h2v22h-2zM196 204h7v2h-7zM332 204h2v22h-2zM332 204h7v2h-7zM468 204h2v22h-2zM468 204h7v2h-7zM604 204h2v22h-2zM604 204h7v2h-7zM740 204h2v22h-2zM740 204h7v2h-7z"/><path style="fill:var(--pf-window-on)" d="M64 206h3v2h-3zM200 206h3v2h-3zM336 206h3v2h-3zM472 206h3v2h-3zM608 206h3v2h-3zM744 206h3v2h-3z"/><g class="pf-stroll" style="animation-delay:-12s"><g transform="translate(0 218)"><g class="pf-face" style="animation-delay:-12s"><g class="pf-hop"><g class="pf-fa" style="animation-duration:0.6s"><path fill="#4a1c14" d="M0 1h2v1h-2zM3 1h2v1h-2zM15 1h2v1h-2zM18 1h2v1h-2zM0 2h1v1h-1zM4 2h1v1h-1zM15 2h1v1h-1zM19 2h1v1h-1zM0 3h1v1h-1zM4 3h1v1h-1zM15 3h1v1h-1zM19 3h1v1h-1zM0 4h1v1h-1zM4 4h1v1h-1zM15 4h1v1h-1zM19 4h1v1h-1zM1 5h3v1h-3zM16 5h3v1h-3zM4 6h1v1h-1zM15 6h1v1h-1zM2 11h1v1h-1zM4 11h1v1h-1zM15 11h1v1h-1zM17 11h1v1h-1zM1 12h1v1h-1zM4 12h1v1h-1zM15 12h1v1h-1zM18 12h1v1h-1z"/><path fill="#ff9a76" d="M1 2h1v1h-1zM18 2h1v1h-1zM1 3h1v1h-1zM18 3h1v1h-1z"/><path fill="#e8553a" d="M3 2h1v1h-1zM16 2h1v1h-1zM2 3h2v1h-2zM16 3h2v1h-2zM1 4h3v1h-3zM16 4h3v1h-3z"/></g><g class="pf-fb" style="animation-duration:0.6s"><path fill="#4a1c14" d="M1 1h3v1h-3zM16 1h3v1h-3zM0 2h1v1h-1zM4 2h1v1h-1zM15 2h1v1h-1zM19 2h1v1h-1zM0 3h1v1h-1zM4 3h1v1h-1zM15 3h1v1h-1zM19 3h1v1h-1zM0 4h1v1h-1zM4 4h1v1h-1zM15 4h1v1h-1zM19 4h1v1h-1zM1 5h3v1h-3zM16 5h3v1h-3zM4 6h1v1h-1zM15 6h1v1h-1zM2 11h1v1h-1zM4 11h1v1h-1zM15 11h1v1h-1zM17 11h1v1h-1zM1 12h1v1h-1zM4 12h1v1h-1zM15 12h1v1h-1zM18 12h1v1h-1z"/><path fill="#ff9a76" d="M1 2h1v1h-1zM18 2h1v1h-1z"/><path fill="#e8553a" d="M2 2h2v1h-2zM16 2h2v1h-2zM1 3h3v1h-3zM16 3h3v1h-3zM1 4h3v1h-3zM16 4h3v1h-3z"/></g><path fill="#4a1c14" d="M6 6h8v1h-8zM5 7h1v1h-1zM14 7h1v1h-1zM4 8h1v1h-1zM15 8h1v1h-1zM4 9h1v1h-1zM15 9h1v1h-1zM5 10h1v1h-1zM14 10h1v1h-1zM6 11h8v1h-8z"/><path fill="#e8553a" d="M6 7h1v1h-1zM9 7h5v1h-5zM5 8h1v1h-1zM7 8h8v1h-8zM5 9h10v1h-10zM8 10h4v1h-4z"/><path fill="#ff9a76" d="M7 7h2v1h-2zM6 8h1v1h-1z"/><path fill="#b53a24" d="M6 10h2v1h-2zM12 10h2v1h-2z"/><path fill="#4a1c14" d="M8 8h1v1h-1zM11 8h1v1h-1zM9 9h2v1h-2z"/><path fill="#ff8fa3" d="M5 9h2v1h-2zM13 9h2v1h-2z"/><path fill="#4a1c14" d="M5 0h4v1h-4zM11 0h4v1h-4zM5 1h1v1h-1zM8 1h1v1h-1zM11 1h1v1h-1zM14 1h1v1h-1zM5 2h1v1h-1zM8 2h1v1h-1zM11 2h1v1h-1zM14 2h1v1h-1zM5 3h4v1h-4zM11 3h4v1h-4zM7 4h1v1h-1zM12 4h1v1h-1zM7 5h1v1h-1zM12 5h1v1h-1z"/><path fill="#1a1a1a" d="M6 1h1v1h-1zM12 1h1v1h-1zM6 2h2v1h-2zM12 2h2v1h-2z"/><path fill="#ffffff" d="M7 1h1v1h-1zM13 1h1v1h-1z"/></g></g></g></g><g class="pf-drive-r" style="animation-delay:-3s"><g transform="translate(0 229)"><path class="pf-beam" d="M24 5L58 1V11Z" fill="url(#pf-beam-r)"/><path fill="#e63946" d="M6 0h10v2h-10zM4 2h2v2h-2zM10 2h2v2h-2zM16 2h2v2h-2zM2 4h20v2h-20zM0 6h24v2h-24zM0 8h4v2h-4zM8 8h8v2h-8zM20 8h4v2h-4z"/><path fill="#bde0fe" d="M6 2h4v2h-4zM12 2h4v2h-4z"/><path fill="#ff4d4d" d="M0 4h2v2h-2z"/><path fill="#fff3a0" d="M22 4h2v2h-2z"/><path fill="#0b0b0f" d="M4 8h4v2h-4zM16 8h4v2h-4zM2 10h2v2h-2zM8 10h2v2h-2zM14 10h2v2h-2zM20 10h2v2h-2zM4 12h4v2h-4zM16 12h4v2h-4z"/><path fill="#c3c8d0" d="M4 10h4v2h-4zM16 10h4v2h-4z"/></g></g><g class="pf-drive-l" style="animation-delay:-7s"><g transform="translate(0 243)"><path class="pf-beam" d="M0 5L-34 1V11Z" fill="url(#pf-beam-l)"/><path fill="#4ea8de" d="M8 0h10v2h-10zM6 2h2v2h-2zM12 2h2v2h-2zM18 2h2v2h-2zM2 4h20v2h-20zM0 6h24v2h-24zM0 8h4v2h-4zM8 8h8v2h-8zM20 8h4v2h-4z"/><path fill="#bde0fe" d="M8 2h4v2h-4zM14 2h4v2h-4z"/><path fill="#fff3a0" d="M0 4h2v2h-2z"/><path fill="#ff4d4d" d="M22 4h2v2h-2z"/><path fill="#0b0b0f" d="M4 8h4v2h-4zM16 8h4v2h-4zM2 10h2v2h-2zM8 10h2v2h-2zM14 10h2v2h-2zM20 10h2v2h-2zM4 12h4v2h-4zM16 12h4v2h-4z"/><path fill="#c3c8d0" d="M4 10h4v2h-4zM16 10h4v2h-4z"/></g></g>
<g><path class="pf-fall pf-spin" style="--dx:-20px;--spin:540deg;animation-duration:12.4s;animation-delay:-2.0s" fill="#e9c46a" d="M260 0h2v1h1v1h-2v-1h-1z"/><path class="pf-fall pf-spin" style="--dx:15px;--spin:540deg;animation-duration:12.4s;animation-delay:-8.0s" fill="#e76f51" d="M636 0h2v1h1v1h-2v-1h-1z"/><path class="pf-fall pf-spin" style="--dx:-18px;--spin:540deg;animation-duration:10.9s;animation-delay:-1.2s" fill="#e76f51" d="M723 0h2v1h2v2h-2v-1h-1v-1h-1z"/><path class="pf-fall pf-spin" style="--dx:25px;--spin:540deg;animation-duration:13.7s;animation-delay:-5.9s" fill="#f4a261" d="M404 0h2v1h2v2h-2v-1h-1v-1h-1z"/><path class="pf-fall pf-spin" style="--dx:33px;--spin:-540deg;animation-duration:8.7s;animation-delay:-5.4s" fill="#f4a261" d="M471 0h2v1h1v1h-2v-1h-1z"/><path class="pf-fall pf-spin" style="--dx:35px;--spin:540deg;animation-duration:11.5s;animation-delay:-0.9s" fill="#e76f51" d="M201 0h2v1h2v2h-2v-1h-1v-1h-1z"/><path class="pf-fall pf-spin" style="--dx:-9px;--spin:540deg;animation-duration:12.7s;animation-delay:-0.7s" fill="#d62828" d="M165 0h2v1h2v2h-2v-1h-1v-1h-1z"/><path class="pf-fall pf-spin" style="--dx:-27px;--spin:-540deg;animation-duration:10.9s;animation-delay:-8.5s" fill="#e9c46a" d="M11 0h2v1h1v1h-2v-1h-1z"/><path class="pf-fall pf-spin" style="--dx:-26px;--spin:540deg;animation-duration:9.8s;animation-delay:-2.1s" fill="#e9c46a" d="M70 0h2v1h1v1h-2v-1h-1z"/><path class="pf-fall pf-spin" style="--dx:-3px;--spin:540deg;animation-duration:14.2s;animation-delay:-13.3s" fill="#e76f51" d="M423 0h2v1h1v1h-2v-1h-1z"/><path class="pf-fall pf-spin" style="--dx:4px;--spin:540deg;animation-duration:12.0s;animation-delay:-3.2s" fill="#f4a261" d="M587 0h2v1h1v1h-2v-1h-1z"/><path class="pf-fall pf-spin" style="--dx:23px;--spin:540deg;animation-duration:8.7s;animation-delay:-8.0s" fill="#e76f51" d="M140 0h2v1h1v1h-2v-1h-1z"/><path class="pf-fall pf-spin" style="--dx:18px;--spin:540deg;animation-duration:10.7s;animation-delay:-10.3s" fill="#e9c46a" d="M678 0h2v1h1v1h-2v-1h-1z"/><path class="pf-fall pf-spin" style="--dx:8px;--spin:540deg;animation-duration:13.8s;animation-delay:-13.7s" fill="#e9c46a" d="M662 0h2v1h2v2h-2v-1h-1v-1h-1z"/><path class="pf-fall pf-spin" style="--dx:-6px;--spin:540deg;animation-duration:12.5s;animation-delay:-11.6s" fill="#f4a261" d="M464 0h2v1h2v2h-2v-1h-1v-1h-1z"/><path class="pf-fall pf-spin" style="--dx:4px;--spin:540deg;animation-duration:12.0s;animation-delay:-2.3s" fill="#f4a261" d="M652 0h2v1h1v1h-2v-1h-1z"/><path class="pf-fall pf-spin" style="--dx:21px;--spin:-540deg;animation-duration:8.1s;animation-delay:-2.8s" fill="#f4a261" d="M716 0h2v1h1v1h-2v-1h-1z"/><path class="pf-fall pf-spin" style="--dx:25px;--spin:540deg;animation-duration:12.3s;animation-delay:-3.3s" fill="#e76f51" d="M753 0h2v1h1v1h-2v-1h-1z"/><path class="pf-fall pf-spin" style="--dx:1px;--spin:540deg;animation-duration:13.1s;animation-delay:-7.6s" fill="#e9c46a" d="M253 0h2v1h2v2h-2v-1h-1v-1h-1z"/><path class="pf-fall pf-spin" style="--dx:2px;--spin:-540deg;animation-duration:8.5s;animation-delay:-5.1s" fill="#f4a261" d="M12 0h2v1h1v1h-2v-1h-1z"/><path class="pf-fall pf-spin" style="--dx:-40px;--spin:540deg;animation-duration:8.9s;animation-delay:-3.6s" fill="#d62828" d="M389 0h2v1h1v1h-2v-1h-1z"/><path class="pf-fall pf-spin" style="--dx:-36px;--spin:540deg;animation-duration:13.9s;animation-delay:-3.4s" fill="#e9c46a" d="M163 0h2v1h2v2h-2v-1h-1v-1h-1z"/><path class="pf-fall pf-spin" style="--dx:22px;--spin:-540deg;animation-duration:10.9s;animation-delay:-7.8s" fill="#d62828" d="M215 0h2v1h1v1h-2v-1h-1z"/><path class="pf-fall pf-spin" style="--dx:9px;--spin:-540deg;animation-duration:8.5s;animation-delay:-4.7s" fill="#e9c46a" d="M524 0h2v1h1v1h-2v-1h-1z"/><path class="pf-fall pf-spin" style="--dx:-19px;--spin:540deg;animation-duration:8.3s;animation-delay:-4.7s" fill="#f4a261" d="M562 0h2v1h2v2h-2v-1h-1v-1h-1z"/><path class="pf-fall pf-spin" style="--dx:-26px;--spin:-540deg;animation-duration:11.6s;animation-delay:-10.5s" fill="#e76f51" d="M303 0h2v1h1v1h-2v-1h-1z"/><path class="pf-fall pf-spin" style="--dx:-20px;--spin:-540deg;animation-duration:14.4s;animation-delay:-5.1s" fill="#d62828" d="M733 0h2v1h1v1h-2v-1h-1z"/><path class="pf-fall pf-spin" style="--dx:19px;--spin:-540deg;animation-duration:8.9s;animation-delay:-6.6s" fill="#e9c46a" d="M531 0h2v1h1v1h-2v-1h-1z"/></g>

</g></g>
<rect x=".5" y=".5" width="799" height="259" rx="10" fill="none" style="stroke:var(--pf-border)"/>
<text x="24" y="36" class="pf-title pf-halo">LobsterEnigma's city</text>
<text x="24" y="56" class="pf-sub pf-halo">161 contributions in the last year</text>
<text x="776" y="36" text-anchor="end" class="pf-stats pf-halo">BEST WEEK 42 · STREAK 5D · LONGEST 5D</text>
</svg>